# xmcd
#
# Track frame offsets:
#	150
#	9050
#	23122
#	34153
#	50228
#	63853
#	75616
#	90531
#	101225
#	111574
#	126830
#	137467
#	149220
#	166247
#	180409
#	194116
#	206419
#	221598
#	242624
#	255212
#
# Disc length: 3589 seconds
#
# Revision: 0
# Processed by: cddbd v1.5.2PL0 Copyright (c) Steve Scherf et al.
# Submitted via: EasyCDDAExtractor 16.0.6.1
#
DISCID=1a0e0314
DTITLE=Λεμπέσης Γιάννης - Ρεμπέτικα πορτρέτα 2-3-Λεμπέσης Γιάννης
DYEAR=2010
DGENRE=Ρεμπέτικη
TTITLE0=Λεμπέσης Γιάννης - Αφήστε όλα τα ψεύτικα [Γιάννης Λεμπέσης]
TTITLE1=Λεμπέσης Γιάννης - Απέναντι στο μιναρέ [Γιάννης Λεμπέσης]
TTITLE2=Λεμπέσης Γιάννης - Μού την έκανες την γκέλα [Γιάννης Λεμπέσης]
TTITLE3=Λεμπέσης Γιάννης - Η σπίθα γίνεται φωτιά [Γιάννης Λεμπέσης]
TTITLE4=Λεμπέσης Γιάννης - Η καρδούλα μου το ξέρει [Γιάννης Λεμπέσης]
TTITLE5=Λεμπέσης Γιάννης - Το παραμύθι πάει νερό [Γιάννης Λεμπέσης]
TTITLE6=Λεμπέσης Γιάννης - Θέλω να φύγω [Γιάννης Λεμπέσης]
TTITLE7=Λεμπέσης Γιάννης - Επιμένω [Γιάννης Λεμπέσης]
TTITLE8=Λεμπέσης Γιάννης - Μπήκε ο διάβολος στη μέση [Γιάννης Λεμπέσης]
TTITLE9=Λεμπέσης Γιάννης - Τρέμω για το μέλλον [Γιάννης Λεμπέσης]
TTITLE10=Λεμπέσης Γιάννης - Όλα είναι μιά βιτρίνα [Γιάννης Λεμπέσης]
TTITLE11=Λεμπέσης Γιάννης - Έφτασα πλέον στο αμήν [Γιάννης Λεμπέσης]
TTITLE12=Λεμπέσης Γιάννης - Κάποια αγάπη [Γιάννης Λεμπέσης]
TTITLE13=Καπετανίδου Μαρία - Το απωθημένο [Γιάννης Λεμπέσης]
TTITLE14=Λεμπέσης Γιάννης-Καπετανίδου Μαρία - Δεν έχω περιθώρια [Γιάννης Λεμπέ
TTITLE14=σης]
TTITLE15=Λεμπέσης Γιάννης-Καπετανίδου Μαρία - Θα τ' αλλάξω το βιολάκι [Γιάννης
TTITLE15=Λεμπέσης]
TTITLE16=Καρακώστας Χρήστος - Μόνο για σένα [Γιάννης Λεμπέσης]
TTITLE17=Καπετανίδου Μαρία - Μη μού χαλάτε τα όνειρά μου [Γιάννης Λεμπέσης]
TTITLE18=Καπετανίδου Μαρία - Τι να πεις και τι ν' αφήσεις [Γιάννης Λεμπέσης]
TTITLE19=Σκορδαλάκη Κατερία - Δώσε μου, φως μου, αφορμή [Γιάννης Λεμπέσης]
EXTD=
EXTT0=
EXTT1=
EXTT2=
EXTT3=
EXTT4=
EXTT5=
EXTT6=
EXTT7=
EXTT8=
EXTT9=
EXTT10=
EXTT11=
EXTT12=
EXTT13=
EXTT14=
EXTT15=
EXTT16=
EXTT17=
EXTT18=
EXTT19=
PLAYORDER=
